HIERARCHY
ROOT joint_Root
{
  OFFSET 0 0 0
  CHANNELS 6 Xposition Yposition Zposition Zrotation Xrotation Yrotation
  JOINT Hips
  {
    OFFSET -3.80622 93.0864 3.55978
    CHANNELS 6 Xposition Yposition Zposition Zrotation Xrotation Yrotation
    JOINT Spine
    {
      OFFSET 15.7357 0 0
      CHANNELS 6 Xposition Yposition Zposition Zrotation Xrotation Yrotation
      JOINT Chest
      {
        OFFSET 8.98455 -0.406207 0
        CHANNELS 6 Xposition Yposition Zposition Zrotation Xrotation Yrotation
        JOINT Neck
        {
          OFFSET 16.3773 0 0
          CHANNELS 6 Xposition Yposition Zposition Zrotation Xrotation Yrotation
          JOINT Head
          {
            OFFSET 6.45672 0 0
            CHANNELS 6 Xposition Yposition Zposition Zrotation Xrotation Yrotation
            End Site
            {
              OFFSET 10 0 0
            }
          }
        }
        JOINT Shoulder_L
        {
          OFFSET 12.9942 -0.242716 4.98039
          CHANNELS 6 Xposition Yposition Zposition Zrotation Xrotation Yrotation
          JOINT UpperArm_L
          {
            OFFSET 5.34809 0 0
            CHANNELS 6 Xposition Yposition Zposition Zrotation Xrotation Yrotation
            JOINT LowerArm_L
            {
              OFFSET 24.3286 1.87007e-05 0
              CHANNELS 6 Xposition Yposition Zposition Zrotation Xrotation Yrotation
              JOINT Hand_L
              {
                OFFSET 22.2916 0 0
                CHANNELS 6 Xposition Yposition Zposition Zrotation Xrotation Yrotation
                End Site
                {
                  OFFSET 5 0 0
                }
              }
            }
          }
        }
        JOINT Shoulder_R
        {
          OFFSET 12.9945 -0.242716 -4.98039
          CHANNELS 6 Xposition Yposition Zposition Zrotation Xrotation Yrotation
          JOINT UpperArm_R
          {
            OFFSET -5.34813 0 0
            CHANNELS 6 Xposition Yposition Zposition Zrotation Xrotation Yrotation
            JOINT LowerArm_R
            {
              OFFSET -24.3289 0.000322201 0
              CHANNELS 6 Xposition Yposition Zposition Zrotation Xrotation Yrotation
              JOINT Hand_R
              {
                OFFSET -22.2915 -0.000108084 0
                CHANNELS 6 Xposition Yposition Zposition Zrotation Xrotation Yrotation
                End Site
                {
                  OFFSET -5 0 0
                }
              }
            }
          }
        }
      }
    }
    JOINT UpperLeg_L
    {
      OFFSET -2.19248 -6.46944 0
      CHANNELS 6 Xposition Yposition Zposition Zrotation Xrotation Yrotation
      JOINT LowerLeg_L
      {
        OFFSET 39.0811 0 -1.23785e-05
        CHANNELS 6 Xposition Yposition Zposition Zrotation Xrotation Yrotation
        JOINT Foot_L
        {
          OFFSET 40.9854 0 -1.26872e-05
          CHANNELS 6 Xposition Yposition Zposition Zrotation Xrotation Yrotation
          JOINT Toes_L
          {
            OFFSET 11.7543 0 0
            CHANNELS 6 Xposition Yposition Zposition Zrotation Xrotation Yrotation
            End Site
            {
              OFFSET 5 0 0
            }
          }
        }
      }
    }
    JOINT UpperLeg_R
    {
      OFFSET -2.19251 6.46944 0
      CHANNELS 6 Xposition Yposition Zposition Zrotation Xrotation Yrotation
      JOINT LowerLeg_R
      {
        OFFSET -39.0811 -0.00228153 -0.0401928
        CHANNELS 6 Xposition Yposition Zposition Zrotation Xrotation Yrotation
        JOINT Foot_R
        {
          OFFSET -40.9854 0 0
          CHANNELS 6 Xposition Yposition Zposition Zrotation Xrotation Yrotation
          JOINT Toes_R
          {
            OFFSET -11.7543 0 0
            CHANNELS 6 Xposition Yposition Zposition Zrotation Xrotation Yrotation
            End Site
            {
              OFFSET -5 0 0
            }
          }
        }
      }
    }
  }
}
MOTION
Frames:	7
Frame Time:	0.0333333
0 0 0 0 0 -0 -3.80622 93.0864 3.55978 87.47 -3.98195 -0.723159 15.7357 5.1072e-06 -5.51765e-07 -88.8338 82.7651 85.664 8.98455 -0.406207 -4.3199e-07 3.98684 -0.593597 6.5464 16.3773 -1.3905e-06 -6.99897e-07 3.73675 1.52769 1.94508 6.45672 -1.25837e-06 -1.02172e-07 -0.944157 3.15877 0.393327 12.9942 -0.242716 4.98039 -87.72 -0.201689 -90.2612 5.34809 -7.22636e-06 -6.2814e-07 -83.086 -17.0125 3.2329 24.3286 1.87007e-05 4.90208e-06 4.6231e-05 -1.46222e-06 -23.6331 22.2916 -9.88446e-07 4.63217e-06 -1.11098 33.7202 -4.33322 12.9945 -0.242716 -4.98039 92.437 -0.124457 -90.3282 -5.34813 -1.25947e-06 -3.79883e-06 -78.1933 -19.8121 3.38053 -24.3289 0.000322201 -8.65921e-06 -0.00101355 0.000111194 -23.6349 -22.2915 -0.000108084 -4.47941e-06 -6.66935 33.9948 -1.42341 -2.19248 -6.46944 -1.22534e-07 -176.47 7.61812 0.899641 39.0811 -6.73843e-06 -1.23785e-05 -1.15687e-06 2.04945e-06 13.1579 40.9854 -6.48686e-06 -1.26872e-05 -1.33125 -0.129916 -64.4406 11.7543 -2.30145e-07 3.05095e-06 -3.0818e-15 7.95139e-16 -16.5824 -2.19251 6.46944 -1.45247e-06 -174.169 -9.98072 179.563 -39.0811 -0.00228153 -0.0401928 1.57763e-05 -0.00012046 9.31667 -40.9854 7.72618e-06 5.99936e-06 3.17053 -1.42406 -59.2284 -11.7543 -5.6619e-06 -5.58687e-06 -9.47987e-16 -3.97569e-16 -16.5787 
0 0 0 0 0 -0 -3.54307 93.0712 3.64777 87.6682 -3.92549 -0.675696 15.7357 5.1072e-06 -5.51765e-07 -88.8867 82.9006 85.9361 8.98455 -0.406207 -4.3199e-07 3.92243 -0.550686 6.46252 16.3773 -1.3905e-06 -6.99897e-07 3.94404 1.44912 1.61805 6.45672 -1.25837e-06 -1.02172e-07 -0.989085 2.90953 -0.0660332 12.9942 -0.242716 4.98039 -87.7903 -0.109311 -89.8461 5.34809 -7.22636e-06 -6.2814e-07 -82.5133 -19.0589 4.54734 24.3286 1.87007e-05 4.90208e-06 4.61527e-05 -1.29434e-06 -27.4118 22.2916 -9.88446e-07 4.63217e-06 -0.82898 33.7351 -4.36761 12.9945 -0.242716 -4.98039 92.3826 -0.351316 -90.2584 -5.34813 -1.25947e-06 -3.79883e-06 -77.9441 -23.1097 4.09234 -24.3289 0.000322201 -8.65921e-06 -0.00100917 0.000120506 -25.6518 -22.2915 -0.000108084 -4.47941e-06 -5.24945 31.9307 -3.60129 -2.19248 -6.46944 -1.22534e-07 -176.829 7.38559 0.920403 39.0811 -6.73843e-06 -1.23785e-05 -1.16286e-06 2.06183e-06 13.2395 40.9854 -6.48686e-06 -1.26872e-05 -1.15888 0.143477 -64.4366 11.7543 -2.30145e-07 3.05095e-06 2.36775e-16 7.95139e-16 -16.5824 -2.19251 6.46944 -1.45247e-06 -174.628 -8.93133 179.164 -39.0811 -0.00228153 -0.0401928 1.78249e-05 -0.000120106 10.2925 -40.9854 7.72618e-06 5.99936e-06 3.05962 -0.429203 -60.2079 -11.7543 -5.6619e-06 -5.58687e-06 0 0 -16.5787 
0 0 0 0 0 -0 -3.26758 93.0534 3.73697 87.907 -3.88931 -0.61118 15.7357 5.1072e-06 -5.51765e-07 -88.9219 83.0493 86.2802 8.98455 -0.406207 -4.3199e-07 3.82471 -0.499826 6.29544 16.3773 -1.3905e-06 -6.99897e-07 4.18834 1.39358 1.14328 6.45672 -1.25837e-06 -1.02172e-07 -0.964224 2.66271 -0.580649 12.9942 -0.242716 4.98039 -87.9011 -0.071603 -89.248 5.34809 -7.22636e-06 -6.2814e-07 -81.5493 -22.0314 6.16048 24.3286 1.87007e-05 4.90208e-06 4.62357e-05 -1.35136e-06 -32.2993 22.2916 -9.88446e-07 4.63217e-06 0.854727 32.6249 -5.84853 12.9945 -0.242716 -4.98039 92.2994 -0.665405 -90.1304 -5.34813 -1.25947e-06 -3.79883e-06 -77.4488 -27.3059 5.05271 -24.3289 0.000322201 -8.65921e-06 -0.00100227 0.000133442 -28.7944 -22.2915 -0.000108084 -4.47941e-06 -2.49454 27.6814 -7.40501 -2.19248 -6.46944 -1.22534e-07 -177.232 7.10451 0.951376 39.0811 -6.73843e-06 -1.23785e-05 -1.16951e-06 2.07549e-06 13.3294 40.9854 -6.48686e-06 -1.26872e-05 -0.998169 0.457321 -64.4246 11.7543 -2.30145e-07 3.05095e-06 7.10324e-16 2.38542e-15 -16.5824 -2.19251 6.46944 -1.45247e-06 -175.177 -7.41644 178.761 -39.0811 -0.00228153 -0.0401928 1.99478e-05 -0.000119701 11.3069 -40.9854 7.72618e-06 5.99936e-06 3.00438 1.04675 -61.2848 -11.7543 -5.6619e-06 -5.58687e-06 1.1836e-16 3.97569e-16 -16.5787 
0 0 0 0 0 -0 -2.98222 93.0364 3.83663 88.1946 -3.87438 -0.525246 15.7357 5.1072e-06 -5.51765e-07 -88.9485 83.1778 86.6357 8.98455 -0.406207 -4.3199e-07 3.71811 -0.450342 6.06372 16.3773 -1.3905e-06 -6.99897e-07 4.47302 1.37072 0.563158 6.45672 -1.25837e-06 -1.02172e-07 -0.856635 2.46638 -1.14676 12.9942 -0.242716 4.98039 -88.0321 -0.195584 -88.5279 5.34809 -7.22636e-06 -6.2814e-07 -80.2017 -25.9443 7.94983 24.3286 1.87007e-05 4.90208e-06 4.59456e-05 -1.83684e-06 -38.209 22.2916 -9.88446e-07 4.63217e-06 3.13736 30.5772 -8.05533 12.9945 -0.242716 -4.98039 92.207 -1.08465 -89.9536 -5.34813 -1.25947e-06 -3.79883e-06 -76.6866 -31.8812 6.09793 -24.3289 0.000322201 -8.65921e-06 -0.000991773 0.000151414 -32.9795 -22.2915 -0.000108084 -4.47941e-06 1.06949 21.1329 -12.2063 -2.19248 -6.46944 -1.22534e-07 -177.7 6.8893 1.04887 39.0811 -6.73843e-06 -1.23785e-05 -1.17006e-06 2.07662e-06 13.3369 40.9854 -6.48686e-06 -1.26872e-05 -0.880392 0.701875 -64.3647 11.7543 -2.30145e-07 3.05095e-06 1.65929e-15 0 -16.5824 -2.19251 6.46944 -1.45247e-06 -175.781 -6.12407 178.397 -39.0811 -0.00228153 -0.0401928 2.19836e-05 -0.000119276 12.2831 -40.9854 7.72618e-06 5.99936e-06 2.86451 2.34373 -62.1858 -11.7543 -5.6619e-06 -5.58687e-06 -1.1836e-16 -3.97569e-16 -16.5787 
0 0 0 0 0 -0 -2.68965 93.0228 3.95019 88.5206 -3.87128 -0.433335 15.7357 5.1072e-06 -5.51765e-07 -88.9827 83.2386 86.9844 8.98455 -0.406207 -4.3199e-07 3.62284 -0.406787 5.7787 16.3773 -1.3905e-06 -6.99897e-07 4.80077 1.38163 -0.0801301 6.45672 -1.25837e-06 -1.02172e-07 -0.665886 2.34526 -1.7448 12.9942 -0.242716 4.98039 -88.1607 -0.512269 -87.7286 5.34809 -7.22636e-06 -6.2814e-07 -78.5085 -30.59 9.58057 24.3286 1.87007e-05 4.90208e-06 4.56173e-05 -1.90576e-06 -44.6813 22.2916 -9.88446e-07 4.63217e-06 5.84438 27.4809 -10.4581 12.9945 -0.242716 -4.98039 92.1233 -1.60144 -89.7651 -5.34813 -1.25947e-06 -3.79883e-06 -75.661 -36.4576 7.03551 -24.3289 0.000322201 -8.65921e-06 -0.000978127 0.000170182 -37.9265 -22.2915 -0.000108084 -4.47941e-06 4.90642 12.9098 -16.8057 -2.19248 -6.46944 -1.22534e-07 -178.266 7.07725 1.24289 39.0811 -6.73843e-06 -1.23785e-05 -1.15901e-06 2.05389e-06 13.1871 40.9854 -6.48686e-06 -1.26872e-05 -0.831055 0.554462 -64.223 11.7543 -2.30145e-07 3.05095e-06 4.73549e-16 1.59028e-15 -16.5824 -2.19251 6.46944 -1.45247e-06 -176.321 -6.37396 178.107 -39.0811 -0.00228153 -0.0401928 2.3742e-05 -0.000118879 13.1291 -40.9854 7.72618e-06 5.99936e-06 2.45035 2.15456 -62.6744 -11.7543 -5.6619e-06 -5.58687e-06 0 0 -16.5787 
0 0 0 0 0 -0 -2.38611 93.0142 4.07167 88.8655 -3.87822 -0.367861 15.7357 5.1072e-06 -5.51765e-07 -89.0792 83.1904 87.3941 8.98455 -0.406207 -4.3199e-07 3.5471 -0.362468 5.4392 16.3773 -1.3905e-06 -6.99897e-07 5.16872 1.42022 -0.765569 6.45672 -1.25837e-06 -1.02172e-07 -0.409504 2.29301 -2.34642 12.9942 -0.242716 4.98039 -88.2719 -0.967003 -86.8597 5.34809 -7.22636e-06 -6.2814e-07 -76.5531 -35.799 10.6259 24.3286 1.87007e-05 4.90208e-06 4.52893e-05 -2.22386e-06 -51.1658 22.2916 -9.88446e-07 4.63217e-06 8.78648 22.1211 -12.6383 12.9945 -0.242716 -4.98039 92.0567 -2.20773 -89.5796 -5.34813 -1.25947e-06 -3.79883e-06 -74.4329 -41.1165 7.68225 -24.3289 0.000322201 -8.65921e-06 -0.000961259 0.000190859 -43.4215 -22.2915 -0.000108084 -4.47941e-06 8.33269 2.54288 -19.6202 -2.19248 -6.46944 -1.22534e-07 -178.915 7.70424 1.50021 39.0811 -6.73843e-06 -1.23785e-05 -1.1665e-06 2.00712e-06 12.8794 40.9854 -6.48686e-06 -1.26872e-05 -0.831745 -0.0162077 -63.9903 11.7543 -2.30145e-07 3.05095e-06 2.84502e-15 -1.59028e-15 -16.5824 -2.19251 6.46944 -1.45247e-06 -176.763 -7.60621 177.986 -39.0811 -0.00228153 -0.0401928 2.47776e-05 -0.000118633 13.6287 -40.9854 7.72618e-06 5.99936e-06 2.22712 0.946368 -62.9623 -11.7543 -5.6619e-06 -5.58687e-06 -1.06635e-15 -7.95139e-16 -16.5787 
0 0 0 0 0 -0 -2.06519 93.0073 4.20247 89.2264 -3.90195 -0.329271 15.7357 5.1072e-06 -5.51765e-07 -89.2821 83.0273 87.9156 8.98455 -0.406207 -4.3199e-07 3.49323 -0.309006 5.0453 16.3773 -1.3905e-06 -6.99897e-07 5.57957 1.47353 -1.48761 6.45672 -1.25837e-06 -1.02172e-07 -0.109644 2.2828 -2.94131 12.9942 -0.242716 4.98039 -88.3555 -1.51014 -85.9437 5.34809 -7.22636e-06 -6.2814e-07 -74.6433 -41.3748 10.7888 24.3286 1.87007e-05 4.90208e-06 4.55568e-05 -1.81832e-06 -57.5224 22.2916 -9.88446e-07 4.63217e-06 11.6508 14.0864 -13.6789 12.9945 -0.242716 -4.98039 92.0109 -2.89929 -89.3651 -5.34813 -1.25947e-06 -3.79883e-06 -73.271 -46.0791 7.72115 -24.3289 0.000322201 -8.65921e-06 -0.000940505 0.000210216 -49.199 -22.2915 -0.000108084 -4.47941e-06 11.9619 -10.3779 -19.4296 -2.19248 -6.46944 -1.22534e-07 -179.624 8.56843 1.75323 39.0811 -6.73843e-06 -1.23785e-05 -1.14268e-06 1.95583e-06 12.5425 40.9854 -6.48686e-06 -1.26872e-05 -0.848538 -0.822976 -63.7175 11.7543 -2.30145e-07 3.05095e-06 -2.13284e-15 -1.59028e-15 -16.5824 -2.19251 6.46944 -1.45247e-06 -177.193 -9.25846 177.874 -39.0811 -0.00228153 -0.0401928 2.57104e-05 -0.000118403 14.0797 -40.9854 7.72618e-06 5.99936e-06 1.95192 -0.662458 -63.2101 -11.7543 -5.6619e-06 -5.58687e-06 7.11268e-16 -3.97569e-16 -16.5787 
